<svg width="56" height="56" viewBox="0 0 56 56" fill="none" xmlns="http://www.w3.org/2000/svg">
<path d="M14 53.6667C12.0556 53.6667 10.4028 52.9861 9.04167 51.625C7.68056 50.2639 7 48.6111 7 46.6667C7 44.7222 7.68056 43.0694 9.04167 41.7083C10.4028 40.3472 12.0556 39.6667 14 39.6667C14.5444 39.6667 15.05 39.725 15.5167 39.8417C15.9833 39.9583 16.4306 40.1139 16.8583 40.3083L20.1833 36.1667C19.0944 34.9611 18.3361 33.6 17.9083 32.0833C17.4806 30.5667 17.3833 29.05 17.6167 27.5333L12.8917 25.9583C12.2306 26.9306 11.3944 27.7083 10.3833 28.2917C9.37222 28.875 8.24444 29.1667 7 29.1667C5.05556 29.1667 3.40278 28.4861 2.04167 27.125C0.680556 25.7639 0 24.1111 0 22.1667C0 20.2222 0.680556 18.5694 2.04167 17.2083C3.40278 15.8472 5.05556 15.1667 7 15.1667C8.94444 15.1667 10.5972 15.8472 11.9583 17.2083C13.3194 18.5694 14 20.2222 14 22.1667V22.6333L18.725 24.2667C19.5028 22.8667 20.5434 21.6806 21.847 20.7083C23.1506 19.7361 24.6182 19.1139 26.25 18.8417V13.7667C24.7333 13.3389 23.4788 12.5121 22.4863 11.2863C21.4939 10.0606 20.9984 8.63178 21 7C21 5.05556 21.6806 3.40278 23.0417 2.04167C24.4028 0.680556 26.0556 0 28 0C29.9444 0 31.5972 0.680556 32.9583 2.04167C34.3194 3.40278 35 5.05556 35 7C35 8.63333 34.4944 10.0629 33.4833 11.2887C32.4722 12.5144 31.2278 13.3404 29.75 13.7667V18.8417C31.3833 19.1139 32.8518 19.7361 34.1553 20.7083C35.4589 21.6806 36.4988 22.8667 37.275 24.2667L42 22.6333V22.1667C42 20.2222 42.6806 18.5694 44.0417 17.2083C45.4028 15.8472 47.0556 15.1667 49 15.1667C50.9444 15.1667 52.5972 15.8472 53.9583 17.2083C55.3194 18.5694 56 20.2222 56 22.1667C56 24.1111 55.3194 25.7639 53.9583 27.125C52.5972 28.4861 50.9444 29.1667 49 29.1667C47.7556 29.1667 46.6177 28.875 45.5863 28.2917C44.555 27.7083 43.729 26.9306 43.1083 25.9583L38.3833 27.5333C38.6167 29.05 38.5194 30.5573 38.0917 32.0553C37.6639 33.5533 36.9056 34.9238 35.8167 36.1667L39.1417 40.25C39.5694 40.0556 40.0167 39.9093 40.4833 39.8113C40.95 39.7133 41.4556 39.6651 42 39.6667C43.9444 39.6667 45.5972 40.3472 46.9583 41.7083C48.3194 43.0694 49 44.7222 49 46.6667C49 48.6111 48.3194 50.2639 46.9583 51.625C45.5972 52.9861 43.9444 53.6667 42 53.6667C40.0556 53.6667 38.4028 52.9861 37.0417 51.625C35.6806 50.2639 35 48.6111 35 46.6667C35 45.8889 35.1268 45.1399 35.3803 44.4197C35.6339 43.6994 35.9738 43.0484 36.4 42.4667L33.075 38.325C31.4806 39.2194 29.7788 39.6667 27.9697 39.6667C26.1606 39.6667 24.4596 39.2194 22.8667 38.325L19.6 42.4667C20.0278 43.05 20.3684 43.7018 20.622 44.422C20.8756 45.1422 21.0016 45.8904 21 46.6667C21 48.6111 20.3194 50.2639 18.9583 51.625C17.5972 52.9861 15.9444 53.6667 14 53.6667Z" fill="#373737"/>
</svg>
