<svg width="45" height="45" viewBox="0 0 45 45" fill="none" xmlns="http://www.w3.org/2000/svg">
<mask id="mask0_19_39" style="mask-type:luminance" maskUnits="userSpaceOnUse" x="0" y="0" width="23" height="23">
<path d="M0 0H22.808V22.597H0V0Z" fill="white"/>
</mask>
<g mask="url(#mask0_19_39)">
<path fill-rule="evenodd" clip-rule="evenodd" d="M0 0H11.0937L22.19 11.0963V22.19H11.0937L0 11.0963V0Z" fill="#F5F5F5"/>
</g>
<mask id="mask1_19_39" style="mask-type:luminance" maskUnits="userSpaceOnUse" x="22" y="0" width="23" height="23">
<path d="M22.1649 0H44.3748V22.597H22.1649V0Z" fill="white"/>
</mask>
<g mask="url(#mask1_19_39)">
<path fill-rule="evenodd" clip-rule="evenodd" d="M22.19 0H33.2786L44.3748 11.0963V22.19H33.2786L22.19 11.0963V0Z" fill="#F5F5F5"/>
</g>
<mask id="mask2_19_39" style="mask-type:luminance" maskUnits="userSpaceOnUse" x="0" y="21" width="23" height="24">
<path d="M0 21.9539H22.808V44.3747H0V21.9539Z" fill="white"/>
</mask>
<g mask="url(#mask2_19_39)">
<path fill-rule="evenodd" clip-rule="evenodd" d="M0 22.1899H11.0937L22.19 33.2811V44.3748H11.0937L0 33.2811V22.1899Z" fill="#F5F5F5"/>
</g>
<mask id="mask3_19_39" style="mask-type:luminance" maskUnits="userSpaceOnUse" x="22" y="21" width="23" height="24">
<path d="M22.1649 21.9539H44.3748V44.3747H22.1649V21.9539Z" fill="white"/>
</mask>
<g mask="url(#mask3_19_39)">
<path fill-rule="evenodd" clip-rule="evenodd" d="M22.19 22.1899H33.2786L44.3748 33.2811V44.3748H33.2786L22.19 33.2811V22.1899Z" fill="#F5F5F5"/>
</g>
</svg>
